<svg width="53" height="17" viewBox="0 0 53 17" fill="none" xmlns="http://www.w3.org/2000/svg">
<path d="M32.534 5.827C32.4753 5.90033 32.4167 5.98467 32.358 6.08C32.2993 6.168 32.2407 6.25233 32.182 6.333C32.0427 6.531 31.896 6.751 31.742 6.993C31.5953 7.22767 31.445 7.47333 31.291 7.73C31.1443 7.98667 30.9977 8.24333 30.851 8.5C30.7117 8.74933 30.576 8.99133 30.444 9.226C30.6127 9.17467 30.785 9.138 30.961 9.116C31.137 9.094 31.313 9.083 31.489 9.083C31.929 9.083 32.2663 9.215 32.501 9.479C32.7357 9.73567 32.8677 10.1023 32.897 10.579C32.9043 10.711 32.908 10.887 32.908 11.107C32.908 11.3197 32.908 11.536 32.908 11.756C32.9153 11.976 32.93 12.1557 32.952 12.295C32.974 12.4783 33.0437 12.6067 33.161 12.68C33.2783 12.7533 33.4103 12.79 33.557 12.79C33.755 12.79 33.9383 12.7277 34.107 12.603C34.2757 12.4783 34.426 12.3023 34.558 12.075C34.6973 11.8403 34.8183 11.569 34.921 11.261C35.031 10.9457 35.1263 10.6047 35.207 10.238L36.659 11.415C36.4683 12.0677 36.219 12.636 35.911 13.12C35.6103 13.604 35.24 13.978 34.8 14.242C34.3673 14.506 33.8577 14.638 33.271 14.638C32.8603 14.638 32.5083 14.5647 32.215 14.418C31.929 14.2713 31.709 14.077 31.555 13.835C31.4083 13.593 31.324 13.3253 31.302 13.032C31.2873 12.8413 31.2763 12.625 31.269 12.383C31.2617 12.141 31.2543 11.91 31.247 11.69C31.247 11.47 31.2397 11.3013 31.225 11.184C31.2103 11.0153 31.1553 10.887 31.06 10.799C30.972 10.7037 30.8437 10.656 30.675 10.656C30.455 10.656 30.2497 10.7257 30.059 10.865C29.8683 11.0043 29.696 11.195 29.542 11.437C29.388 11.679 29.2487 11.9503 29.124 12.251C29.058 12.4123 28.9883 12.5993 28.915 12.812C28.8417 13.0247 28.772 13.2483 28.706 13.483C28.64 13.7103 28.574 13.9267 28.508 14.132C28.4493 14.3447 28.398 14.528 28.354 14.682L26.462 14.044C26.6013 13.6773 26.77 13.2593 26.968 12.79C27.166 12.3207 27.3823 11.8257 27.617 11.305C27.8517 10.7843 28.09 10.271 28.332 9.765C28.574 9.25167 28.805 8.76767 29.025 8.313C29.245 7.851 29.443 7.45133 29.619 7.114C29.795 6.76933 29.9307 6.509 30.026 6.333C30.0993 6.179 30.191 5.99933 30.301 5.794C30.411 5.58133 30.5247 5.33933 30.642 5.068L32.534 5.827Z" fill="white"/>
<path d="M39.585 7.774H44.293V9.215H39.585V7.774ZM37.66 10.48H47.373V11.998H37.66V10.48ZM41.62 9.853H43.336V13.263C43.336 13.6737 43.2773 13.9927 43.16 14.22C43.05 14.4547 42.841 14.6343 42.533 14.759C42.2323 14.8763 41.8877 14.9497 41.499 14.979C41.1177 15.0083 40.6997 15.023 40.245 15.023C40.2157 14.8617 40.1607 14.6783 40.08 14.473C40.0067 14.275 39.9223 14.0807 39.827 13.89C39.739 13.692 39.651 13.5197 39.563 13.373C39.7757 13.3803 40.003 13.3877 40.245 13.395C40.487 13.4023 40.707 13.406 40.905 13.406C41.1103 13.406 41.2497 13.406 41.323 13.406C41.4403 13.406 41.5173 13.3913 41.554 13.362C41.598 13.3327 41.62 13.2813 41.62 13.208V9.853ZM43.798 7.774H44.227L44.59 7.697L45.613 8.489C45.3783 8.76767 45.1143 9.05 44.821 9.336C44.5277 9.622 44.2123 9.897 43.875 10.161C43.5377 10.4177 43.1857 10.6413 42.819 10.832C42.7237 10.7 42.588 10.546 42.412 10.37C42.2433 10.194 42.104 10.0547 41.994 9.952C42.2433 9.79067 42.4853 9.6 42.72 9.38C42.9547 9.15267 43.1673 8.92533 43.358 8.698C43.5487 8.46333 43.6953 8.258 43.798 8.082V7.774ZM41.62 4.606H43.336V6.74H41.62V4.606ZM37.66 5.574H47.318V8.588H45.657V7.081H39.233V8.588H37.66V5.574Z" fill="#3B68F9"/>
<path d="M7.032 14V5.06H9.18V8.6H9.216L11.748 5.06H14.1L11.4 8.648L14.604 14H12.264L10.152 10.34L9.18 11.66V14H7.032ZM16.3374 14L19.1094 5.06H21.6774L24.4494 14H22.1934L21.0774 9.536C20.9574 9.088 20.8374 8.612 20.7174 8.108C20.6054 7.604 20.4894 7.124 20.3694 6.668H20.3214C20.2174 7.132 20.1054 7.616 19.9854 8.12C19.8654 8.616 19.7494 9.088 19.6374 9.536L18.5214 14H16.3374ZM18.2214 11.948V10.292H22.5414V11.948H18.2214Z" fill="white"/>
<path d="M51 6C51 6 52 7.5 52 10C52 12.5 51 14 51 14" stroke="#A9A9B5"/>
<path d="M2 14C2 14 1 12.5 1 10C1 7.5 2 6 2 6" stroke="#A9A9B5"/>
</svg>
